# xmcd
#
# Track frame offsets:
# 150
# 20450
# 34640
# 54110
# 82719
# 109333
# 130352
# 165113
# 184478
# 213172
# 238667
# 254128
# 271315
#
# Disc length: 3877 seconds
#
#
# Revision: 2
# Processed by: cddbd v1.5.2PL0 Copyright (c) Steve Scherf et al.
# Submitted via: FreeRIP 2.95 
#
DISCID=a80f230d
DTITLE=Evile - Enter The Grave
DYEAR=2007
DGENRE=Thrash Metal
TTITLE0=Enter The Grave
TTITLE1=Thrasher
TTITLE2=First Blood
TTITLE3=Man Against Machine
TTITLE4=Burned Alive
TTITLE5=Killer From The Deep
TTITLE6=We Who Are About To Die
TTITLE7=Schizophrenia
TTITLE8=Bathe In Blood
TTITLE9=Armoured Assault
TTITLE10=Darkness Shall Bring Death (Demo)
TTITLE11=Sacrificial (Demo)
TTITLE12=Enter The Grave (Demo)
EXTD=Special Redux Edition 2008
EXTT0=
EXTT1=
EXTT2=
EXTT3=
EXTT4=
EXTT5=
EXTT6=
EXTT7=
EXTT8=
EXTT9=
EXTT10=
EXTT11=
EXTT12=
PLAYORDER=
